<svg id="svg" version="1.1" width="400" height="430.0751879699248" viewBox="0 0 400 430.0751879699248" xmlns="http://www.w3.org/2000/svg" xmlns:xlink="http://www.w3.org/1999/xlink"><g id="svgg"><path id="path0" d="M166.298 80.517 C 165.989 83.363,166.180 97.113,166.533 97.467 C 166.716 97.650,170.126 97.846,174.110 97.901 C 179.365 97.975,181.442 98.140,181.671 98.501 C 182.150 99.255,182.085 247.101,181.606 247.397 C 181.107 247.705,151.670 247.690,151.170 247.381 C 150.573 247.012,150.682 134.678,151.280 134.080 C 151.612 133.748,153.680 133.600,158.000 133.600 C 162.320 133.600,164.388 133.452,164.720 133.120 C 165.228 132.612,165.426 117.086,164.948 115.300 L 164.707 114.400 130.603 114.400 L 96.500 114.400 96.250 115.650 C 95.925 117.275,95.925 130.725,96.250 132.350 L 96.500 133.600 103.617 133.600 C 107.532 133.600,111.019 133.709,111.367 133.843 C 111.941 134.063,112.000 140.224,112.000 199.543 L 112.001 265.000 124.700 277.914 L 137.400 290.828 159.220 290.814 C 175.674 290.804,181.158 290.918,181.520 291.280 C 182.209 291.969,182.209 320.831,181.520 321.520 C 181.182 321.858,178.880 322.000,173.720 322.000 L 166.400 322.000 166.400 334.200 L 166.400 346.400 202.753 346.400 L 239.107 346.400 239.348 345.500 C 239.664 344.321,239.672 323.454,239.357 322.633 C 239.148 322.088,238.102 321.999,231.857 321.994 C 227.866 321.991,224.370 321.842,224.090 321.664 C 223.561 321.328,223.295 292.017,223.813 291.178 C 223.956 290.948,232.604 290.803,245.924 290.807 L 267.800 290.814 280.482 277.907 L 293.164 265.000 293.182 199.780 C 293.196 149.607,293.311 134.449,293.680 134.080 C 294.016 133.744,296.228 133.600,301.066 133.600 C 309.607 133.600,308.848 134.622,308.708 123.312 L 308.600 114.600 274.300 114.498 L 240.000 114.396 240.000 123.365 C 240.000 134.817,239.172 133.600,246.963 133.600 C 251.467 133.600,253.586 133.746,253.920 134.080 C 254.811 134.971,254.594 247.085,253.700 247.486 C 253.315 247.659,246.430 247.710,238.400 247.600 L 223.800 247.400 223.600 173.200 C 223.438 113.080,223.498 98.886,223.914 98.400 C 224.336 97.908,225.724 97.800,231.629 97.800 C 240.408 97.800,239.586 98.816,239.594 87.950 L 239.600 79.300 238.310 79.042 C 237.600 78.900,221.148 78.795,201.750 78.809 L 166.481 78.833 166.298 80.517 " stroke="none" fill="#faf8f7" fill-rule="evenodd"></path><path id="path1" d="M0.000 215.000 L 0.000 430.000 200.000 430.000 L 400.000 430.000 400.000 215.000 L 400.000 0.000 200.000 0.000 L 0.000 0.000 0.000 215.000 M235.772 73.155 C 235.893 73.350,235.723 73.732,235.396 74.004 C 234.900 74.415,234.800 74.355,234.800 73.649 C 234.800 72.791,235.368 72.502,235.772 73.155 M164.394 75.900 C 164.379 76.611,163.695 77.278,163.426 76.843 C 163.276 76.599,163.264 76.220,163.400 76.000 C 163.688 75.533,164.403 75.462,164.394 75.900 M239.632 77.829 C 240.055 78.211,240.400 78.820,240.400 79.182 C 240.400 79.544,240.602 80.042,240.850 80.290 C 241.178 80.618,241.182 81.077,240.866 81.983 C 240.620 82.689,240.596 83.126,240.811 82.993 C 241.020 82.864,241.114 82.993,241.019 83.279 C 240.925 83.566,240.753 87.002,240.638 90.915 C 240.422 98.238,240.335 98.800,239.410 98.800 C 239.111 98.800,238.805 98.985,238.729 99.212 C 238.645 99.466,236.192 99.658,232.329 99.712 C 228.884 99.760,225.965 99.900,225.843 100.023 C 225.311 100.557,224.797 212.339,225.198 240.400 C 225.206 240.950,225.115 242.030,224.996 242.800 C 224.838 243.818,224.989 244.466,225.547 245.174 L 226.315 246.148 238.765 246.152 C 249.589 246.156,251.297 246.074,251.848 245.524 C 252.696 244.676,252.949 136.793,252.106 135.947 C 251.779 135.619,249.474 135.363,245.306 135.192 C 241.837 135.049,239.343 134.902,239.762 134.866 C 240.475 134.804,240.481 134.753,239.862 134.069 C 239.498 133.666,239.187 132.901,239.172 132.369 C 239.146 131.478,239.118 131.464,238.821 132.200 C 238.634 132.664,238.436 129.895,238.350 125.600 C 238.182 117.313,238.306 114.808,238.840 115.652 C 239.078 116.027,239.190 115.785,239.194 114.887 C 239.198 114.096,239.437 113.484,239.798 113.346 C 240.126 113.219,240.324 113.000,240.236 112.858 C 240.149 112.716,254.235 112.628,271.539 112.662 C 292.432 112.704,303.705 112.582,305.098 112.299 L 307.196 111.874 308.698 113.420 L 310.200 114.967 310.062 123.436 C 309.970 129.072,310.065 131.993,310.344 132.166 C 310.946 132.537,310.406 133.688,309.748 133.436 C 309.447 133.320,309.200 133.449,309.200 133.724 C 309.200 135.316,306.519 135.889,302.347 135.189 C 300.415 134.865,299.252 134.863,298.064 135.183 C 294.666 136.098,294.866 131.835,294.871 203.277 C 294.873 237.750,294.742 266.170,294.580 266.432 C 294.405 266.715,294.676 267.210,295.242 267.646 L 296.200 268.382 294.622 268.391 C 293.257 268.399,290.515 269.735,289.600 270.839 C 289.490 270.972,288.990 271.296,288.489 271.560 C 287.988 271.824,287.675 272.198,287.794 272.390 C 288.260 273.144,278.657 282.984,277.783 282.649 C 277.467 282.528,277.247 282.557,277.294 282.714 C 277.506 283.434,275.015 286.483,270.492 291.043 L 269.184 292.362 248.173 292.389 C 232.798 292.410,226.959 292.543,226.408 292.888 C 225.477 293.469,225.345 295.997,225.526 309.874 L 225.651 319.548 226.926 319.843 C 227.626 320.006,230.337 320.115,232.950 320.085 C 239.200 320.014,241.655 321.255,240.988 324.149 C 240.576 325.936,240.571 329.536,240.970 338.100 C 241.230 343.685,241.202 345.600,240.860 345.600 C 240.607 345.600,240.400 345.838,240.400 346.128 C 240.400 346.418,239.932 347.063,239.359 347.561 L 238.319 348.465 202.659 348.418 C 183.047 348.393,166.949 348.224,166.886 348.044 C 166.823 347.864,166.302 347.806,165.728 347.916 C 164.770 348.099,164.706 348.029,164.950 347.058 C 165.143 346.288,165.061 346.000,164.650 346.000 C 163.781 346.000,163.566 344.936,164.023 342.899 C 164.255 341.863,164.411 337.061,164.376 332.022 L 164.314 323.000 165.657 321.649 L 167.000 320.299 173.315 320.249 C 178.407 320.210,179.700 320.086,179.994 319.611 C 180.496 318.797,180.527 294.584,180.026 293.649 C 179.417 292.511,177.571 292.414,156.119 292.392 L 136.258 292.372 132.529 288.495 C 130.478 286.362,128.800 284.432,128.800 284.206 C 128.800 283.980,128.269 283.560,127.619 283.273 C 126.969 282.985,126.338 282.435,126.216 282.050 C 126.094 281.666,125.189 280.665,124.204 279.825 C 123.220 278.986,122.504 278.155,122.613 277.979 C 122.722 277.802,122.470 277.549,122.052 277.417 C 121.401 277.210,119.070 274.910,116.740 272.175 C 116.377 271.749,115.034 270.410,113.755 269.200 C 110.146 265.786,110.000 265.374,110.000 258.601 C 110.000 255.000,110.152 252.800,110.400 252.800 C 110.665 252.800,110.800 234.267,110.800 198.000 C 110.800 161.733,110.665 143.200,110.400 143.200 C 110.180 143.200,110.000 142.300,110.000 141.200 C 110.000 140.100,110.180 139.200,110.400 139.200 C 110.620 139.200,110.800 138.739,110.800 138.176 C 110.800 137.613,110.633 137.256,110.429 137.382 C 110.225 137.508,109.946 137.260,109.810 136.831 C 109.423 135.612,107.264 135.154,102.130 135.201 C 95.872 135.258,95.915 135.261,96.200 134.800 C 96.336 134.580,96.269 134.400,96.051 134.400 C 95.832 134.400,95.540 134.040,95.400 133.600 C 95.260 133.160,94.892 132.800,94.580 132.800 C 94.110 132.800,94.022 131.407,94.056 124.500 C 94.097 116.183,94.203 115.047,94.844 116.057 C 95.072 116.417,95.190 116.099,95.194 115.114 C 95.204 112.618,93.666 112.725,130.751 112.641 C 164.475 112.566,165.779 112.587,165.391 113.214 C 165.279 113.396,165.370 113.658,165.593 113.796 C 165.817 113.934,166.013 114.442,166.028 114.924 C 166.055 115.767,166.069 115.770,166.392 115.000 C 166.591 114.526,166.783 118.001,166.864 123.539 C 166.991 132.268,166.903 133.721,166.255 133.634 C 166.115 133.615,166.011 133.710,166.023 133.845 C 166.116 134.814,163.533 135.303,158.728 135.228 C 154.124 135.157,153.618 135.219,153.252 135.902 C 152.427 137.444,152.497 244.669,153.324 245.495 C 154.183 246.354,178.827 246.407,179.857 245.553 C 180.311 245.176,180.400 233.199,180.400 172.765 L 180.400 100.428 179.524 99.959 C 178.912 99.632,176.803 99.552,172.524 99.696 C 169.156 99.809,166.400 99.767,166.400 99.601 C 166.400 99.436,165.937 98.783,165.372 98.150 L 164.344 97.000 164.302 87.890 C 164.273 81.398,164.396 78.644,164.730 78.310 C 164.989 78.051,165.200 77.966,165.200 78.120 C 165.200 78.274,165.515 78.085,165.900 77.700 C 166.978 76.623,238.438 76.748,239.632 77.829 M164.666 99.827 C 164.798 100.172,164.747 100.603,164.553 100.785 C 164.037 101.269,162.400 100.530,162.400 99.813 C 162.400 98.989,164.349 99.001,164.666 99.827 M240.800 100.000 C 240.800 100.220,240.440 100.760,240.000 101.200 L 239.200 102.000 239.200 100.800 C 239.200 99.867,239.378 99.600,240.000 99.600 C 240.440 99.600,240.800 99.780,240.800 100.000 M228.623 102.285 C 228.500 102.604,228.400 103.031,228.400 103.233 C 228.400 103.896,227.637 103.617,227.196 102.792 C 226.640 101.753,226.980 101.217,228.023 101.490 C 228.537 101.624,228.762 101.923,228.623 102.285 M235.567 101.713 C 235.475 101.775,235.106 102.050,234.747 102.323 C 234.214 102.729,234.050 102.708,233.859 102.210 C 233.686 101.758,233.899 101.600,234.679 101.600 C 235.259 101.600,235.658 101.651,235.567 101.713 M236.000 105.882 C 236.000 106.773,235.831 107.210,235.525 107.108 C 234.894 106.898,234.261 104.938,234.567 104.142 C 234.978 103.070,236.000 104.311,236.000 105.882 M229.443 104.700 C 230.171 105.659,230.133 107.392,229.370 108.025 C 228.643 108.628,227.848 107.837,228.204 106.867 C 228.312 106.574,228.400 105.809,228.400 105.167 C 228.400 103.830,228.686 103.702,229.443 104.700 M238.800 108.800 C 238.800 109.020,238.598 109.200,238.351 109.200 C 238.021 109.200,238.020 109.342,238.348 109.737 C 238.788 110.267,238.580 110.800,237.933 110.800 C 237.538 110.800,237.483 109.050,237.867 108.667 C 238.265 108.268,238.800 108.345,238.800 108.800 M310.600 108.800 C 310.464 109.020,310.104 109.200,309.800 109.200 C 309.496 109.200,309.136 109.020,309.000 108.800 C 308.859 108.572,309.204 108.400,309.800 108.400 C 310.396 108.400,310.741 108.572,310.600 108.800 M92.400 110.376 C 92.400 110.848,91.620 111.353,91.333 111.067 C 91.047 110.780,91.552 110.000,92.024 110.000 C 92.231 110.000,92.400 110.169,92.400 110.376 M166.161 126.000 C 166.161 129.410,166.222 130.805,166.297 129.100 C 166.372 127.395,166.372 124.605,166.297 122.900 C 166.222 121.195,166.161 122.590,166.161 126.000 M312.652 134.900 C 312.519 135.395,312.408 135.928,312.405 136.084 C 312.400 136.344,310.003 136.346,310.001 136.086 C 310.000 136.023,310.291 135.528,310.646 134.986 C 311.499 133.684,312.995 133.620,312.652 134.900 M168.387 135.500 C 168.375 136.554,168.350 136.567,167.787 135.824 C 167.326 135.214,167.307 134.979,167.700 134.730 C 168.404 134.283,168.401 134.280,168.387 135.500 M236.614 138.246 C 237.848 139.054,238.029 141.200,236.864 141.200 C 236.088 141.200,235.200 139.696,235.200 138.381 C 235.200 137.433,235.351 137.419,236.614 138.246 M165.747 139.658 C 168.370 140.185,168.549 140.940,166.095 141.122 C 164.637 141.230,160.800 139.975,160.800 139.390 C 160.800 139.048,163.418 139.190,165.747 139.658 M155.600 141.624 C 155.600 142.077,155.420 142.336,155.200 142.200 C 154.980 142.064,154.800 141.693,154.800 141.376 C 154.800 141.059,154.980 140.800,155.200 140.800 C 155.420 140.800,155.600 141.171,155.600 141.624 M227.936 244.519 C 227.360 245.595,226.608 244.436,227.026 243.117 C 227.289 242.291,227.326 242.285,227.835 242.980 C 228.235 243.527,228.260 243.914,227.936 244.519 M155.024 243.387 C 155.767 243.950,155.754 243.975,154.700 243.987 C 153.983 243.996,153.600 243.791,153.600 243.400 C 153.600 242.643,154.034 242.639,155.024 243.387 M111.600 269.400 C 111.600 269.733,111.244 270.000,110.800 270.000 C 110.003 270.000,109.760 269.574,110.267 269.067 C 110.754 268.579,111.600 268.791,111.600 269.400 M115.855 273.000 C 116.164 273.804,115.672 275.039,115.232 274.567 C 114.481 273.761,114.326 272.400,114.986 272.400 C 115.337 272.400,115.729 272.670,115.855 273.000 M294.400 274.976 C 294.400 275.758,293.625 276.185,293.120 275.680 C 292.894 275.454,292.831 275.074,292.978 274.835 C 293.371 274.200,294.400 274.303,294.400 274.976 M282.460 280.713 C 281.775 280.942,281.904 281.600,282.633 281.600 C 283.288 281.600,283.240 282.464,282.575 282.661 C 281.328 283.032,280.685 281.632,281.644 280.632 C 282.219 280.033,282.664 279.819,282.760 280.098 C 282.848 280.352,282.713 280.629,282.460 280.713 M123.423 281.547 C 123.946 281.958,124.271 282.396,124.147 282.520 C 123.774 282.893,122.000 281.914,122.000 281.336 C 122.000 280.616,122.296 280.660,123.423 281.547 M128.123 286.426 C 128.271 286.991,128.120 287.200,127.563 287.200 C 127.143 287.200,126.798 286.975,126.795 286.700 C 126.792 286.425,126.673 285.750,126.532 285.200 C 126.279 284.219,126.290 284.214,127.097 284.926 C 127.550 285.325,128.011 286.000,128.123 286.426 M282.400 287.800 C 282.400 288.173,282.022 288.400,281.400 288.400 C 280.429 288.400,280.123 288.011,280.667 287.467 C 281.170 286.963,282.400 287.200,282.400 287.800 M266.800 294.400 C 266.800 294.620,266.350 294.800,265.800 294.800 C 265.250 294.800,264.800 294.620,264.800 294.400 C 264.800 294.180,265.250 294.000,265.800 294.000 C 266.350 294.000,266.800 294.180,266.800 294.400 M164.167 320.943 C 163.893 321.656,162.400 321.862,162.400 321.187 C 162.400 320.815,164.044 319.956,164.309 320.189 C 164.370 320.242,164.305 320.581,164.167 320.943 M157.600 337.400 C 157.600 337.730,157.330 338.000,157.000 338.000 C 156.375 338.000,156.206 337.527,156.667 337.067 C 157.127 336.606,157.600 336.775,157.600 337.400 " stroke="none" fill="#9c0404" fill-rule="evenodd"></path><path id="path2" d="M224.196 172.600 C 224.196 212.640,224.243 228.961,224.300 208.868 C 224.357 188.776,224.357 156.016,224.300 136.068 C 224.243 116.121,224.196 132.560,224.196 172.600 M181.362 120.200 C 181.362 123.720,181.424 125.106,181.498 123.281 C 181.572 121.456,181.572 118.576,181.497 116.881 C 181.422 115.186,181.361 116.680,181.362 120.200 M308.937 129.000 C 308.939 130.760,309.009 131.430,309.093 130.489 C 309.178 129.549,309.177 128.109,309.091 127.289 C 309.005 126.470,308.936 127.240,308.937 129.000 M103.370 134.300 C 108.259 134.381,110.741 134.575,111.170 134.910 C 111.726 135.342,111.735 135.317,111.251 134.700 C 110.759 134.073,109.946 134.009,103.451 134.090 L 96.200 134.180 103.370 134.300 M151.680 134.480 C 151.310 134.850,151.223 147.788,151.298 190.780 L 151.396 246.600 151.598 190.600 L 151.800 134.600 157.600 134.383 L 163.400 134.166 157.780 134.083 C 153.843 134.025,152.016 134.144,151.680 134.480 M246.783 134.385 L 253.365 134.600 253.643 135.600 C 253.875 136.437,253.927 136.467,253.960 135.780 C 254.039 134.150,253.371 133.996,246.620 134.085 L 240.200 134.170 246.783 134.385 M294.261 134.300 C 294.158 134.465,295.992 134.553,298.337 134.495 C 306.202 134.300,307.047 134.152,300.724 134.076 C 297.272 134.034,294.363 134.135,294.261 134.300 M181.340 219.600 C 181.340 221.470,181.409 222.235,181.493 221.300 C 181.577 220.365,181.577 218.835,181.493 217.900 C 181.409 216.965,181.340 217.730,181.340 219.600 M181.314 244.600 C 181.317 245.700,181.395 246.103,181.487 245.495 C 181.579 244.886,181.577 243.986,181.482 243.495 C 181.387 243.003,181.311 243.500,181.314 244.600 M121.600 275.800 C 124.123 278.330,126.277 280.400,126.387 280.400 C 126.497 280.400,124.523 278.330,122.000 275.800 C 119.477 273.270,117.323 271.200,117.213 271.200 C 117.103 271.200,119.077 273.270,121.600 275.800 M281.195 277.900 L 274.600 284.600 281.300 278.005 C 287.525 271.877,288.181 271.200,287.895 271.200 C 287.838 271.200,284.823 274.215,281.195 277.900 M130.800 285.000 C 131.546 285.770,132.247 286.400,132.357 286.400 C 132.467 286.400,131.946 285.770,131.200 285.000 C 130.454 284.230,129.753 283.600,129.643 283.600 C 129.533 283.600,130.054 284.230,130.800 285.000 M137.144 291.304 C 137.311 291.471,146.617 291.561,157.824 291.504 L 178.200 291.400 157.520 291.200 C 146.146 291.090,136.976 291.137,137.144 291.304 M224.262 291.500 C 224.093 291.772,240.321 291.768,260.400 291.490 C 264.690 291.431,258.356 291.341,246.324 291.291 C 234.292 291.241,224.364 291.335,224.262 291.500 M224.175 304.400 C 224.175 310.230,224.231 312.615,224.299 309.700 C 224.367 306.785,224.367 302.015,224.299 299.100 C 224.231 296.185,224.175 298.570,224.175 304.400 M181.114 320.287 C 180.929 320.995,180.533 321.180,178.944 321.304 L 177.000 321.456 178.851 321.528 C 180.747 321.602,181.846 320.938,181.508 319.924 C 181.415 319.645,181.239 319.806,181.114 320.287 M168.713 321.495 C 169.876 321.576,171.676 321.576,172.713 321.493 C 173.751 321.411,172.800 321.345,170.600 321.346 C 168.400 321.347,167.551 321.414,168.713 321.495 M230.917 321.497 C 232.411 321.574,234.751 321.574,236.117 321.496 C 237.482 321.418,236.260 321.355,233.400 321.355 C 230.540 321.356,229.422 321.420,230.917 321.497 " stroke="none" fill="#aa5759" fill-rule="evenodd"></path><path id="path3" d="M165.709 82.000 C 165.709 82.990,165.787 83.395,165.882 82.900 C 165.978 82.405,165.978 81.595,165.882 81.100 C 165.787 80.605,165.709 81.010,165.709 82.000 M239.693 81.600 C 239.693 82.370,239.775 82.685,239.876 82.300 C 239.976 81.915,239.976 81.285,239.876 80.900 C 239.775 80.515,239.693 80.830,239.693 81.600 M239.761 89.200 C 239.761 92.610,239.822 94.005,239.897 92.300 C 239.972 90.595,239.972 87.805,239.897 86.100 C 239.822 84.395,239.761 85.790,239.761 89.200 M165.761 90.400 C 165.761 93.810,165.822 95.205,165.897 93.500 C 165.972 91.795,165.972 89.005,165.897 87.300 C 165.822 85.595,165.761 86.990,165.761 90.400 M181.365 107.200 C 181.365 111.050,181.425 112.625,181.498 110.700 C 181.571 108.775,181.571 105.625,181.498 103.700 C 181.425 101.775,181.365 103.350,181.365 107.200 M113.130 113.900 C 122.441 113.960,137.561 113.960,146.730 113.900 C 155.898 113.840,148.280 113.791,129.800 113.791 C 111.320 113.791,103.818 113.840,113.130 113.900 M256.730 113.900 C 266.041 113.960,281.161 113.960,290.330 113.900 C 299.498 113.840,291.880 113.791,273.400 113.791 C 254.920 113.791,247.418 113.840,256.730 113.900 M308.937 117.400 C 308.939 119.160,309.009 119.830,309.093 118.889 C 309.178 117.949,309.177 116.509,309.091 115.689 C 309.005 114.870,308.936 115.640,308.937 117.400 M165.364 121.400 C 165.363 125.140,165.423 126.724,165.497 124.920 C 165.571 123.115,165.572 120.055,165.498 118.120 C 165.425 116.184,165.364 117.660,165.364 121.400 M239.770 123.600 C 239.770 128.330,239.828 130.265,239.898 127.900 C 239.969 125.535,239.969 121.665,239.898 119.300 C 239.828 116.935,239.770 118.870,239.770 123.600 M308.924 123.800 C 308.926 125.120,309.001 125.612,309.090 124.893 C 309.179 124.174,309.177 123.094,309.086 122.493 C 308.995 121.892,308.922 122.480,308.924 123.800 M181.393 171.400 C 181.393 196.260,181.441 206.371,181.500 193.869 C 181.559 181.367,181.559 161.027,181.500 148.669 C 181.441 136.311,181.393 146.540,181.393 171.400 M111.395 199.800 C 111.395 235.440,111.442 249.961,111.500 232.068 C 111.558 214.176,111.558 185.016,111.500 167.268 C 111.442 149.521,111.395 164.160,111.395 199.800 M293.795 200.200 C 293.795 235.620,293.842 250.051,293.900 232.268 C 293.958 214.486,293.958 185.506,293.900 167.868 C 293.842 150.231,293.795 164.780,293.795 200.200 M253.794 190.600 C 253.794 220.520,253.842 232.701,253.900 217.669 C 253.958 202.637,253.958 178.157,253.900 163.269 C 253.842 148.381,253.794 160.680,253.794 190.600 M181.374 232.800 C 181.374 238.410,181.430 240.705,181.499 237.900 C 181.568 235.095,181.568 230.505,181.499 227.700 C 181.430 224.895,181.374 227.190,181.374 232.800 M159.326 247.500 C 163.466 247.565,170.126 247.565,174.126 247.499 C 178.127 247.434,174.740 247.381,166.600 247.381 C 158.460 247.381,155.187 247.434,159.326 247.500 M232.274 247.499 C 236.055 247.565,242.355 247.565,246.274 247.499 C 250.193 247.434,247.100 247.380,239.400 247.380 C 231.700 247.380,228.493 247.434,232.274 247.499 M112.000 265.710 C 112.000 265.771,113.395 267.166,115.100 268.810 L 118.200 271.800 115.210 268.700 C 112.433 265.821,112.000 265.417,112.000 265.710 M288.575 270.100 L 287.400 271.400 288.700 270.225 C 289.415 269.579,290.000 268.994,290.000 268.925 C 290.000 268.616,289.670 268.888,288.575 270.100 M133.600 287.800 C 134.346 288.570,135.047 289.200,135.157 289.200 C 135.267 289.200,134.746 288.570,134.000 287.800 C 133.254 287.030,132.553 286.400,132.443 286.400 C 132.333 286.400,132.854 287.030,133.600 287.800 M269.178 289.900 L 267.800 291.400 269.300 290.022 C 270.696 288.738,270.984 288.400,270.678 288.400 C 270.612 288.400,269.937 289.075,269.178 289.900 M181.340 296.400 C 181.340 298.270,181.409 299.035,181.493 298.100 C 181.577 297.165,181.577 295.635,181.493 294.700 C 181.409 293.765,181.340 294.530,181.340 296.400 M181.373 310.200 C 181.373 315.480,181.430 317.585,181.499 314.877 C 181.568 312.169,181.568 307.849,181.499 305.277 C 181.429 302.705,181.372 304.920,181.373 310.200 M175.105 321.483 C 175.602 321.579,176.322 321.575,176.705 321.475 C 177.087 321.375,176.680 321.296,175.800 321.301 C 174.920 321.305,174.607 321.387,175.105 321.483 M239.709 323.600 C 239.709 324.590,239.787 324.995,239.882 324.500 C 239.978 324.005,239.978 323.195,239.882 322.700 C 239.787 322.205,239.709 322.610,239.709 323.600 M165.777 334.000 C 165.777 340.490,165.832 343.145,165.899 339.900 C 165.966 336.655,165.966 331.345,165.899 328.100 C 165.832 324.855,165.777 327.510,165.777 334.000 M239.740 342.800 C 239.740 344.670,239.809 345.435,239.893 344.500 C 239.977 343.565,239.977 342.035,239.893 341.100 C 239.809 340.165,239.740 340.930,239.740 342.800 M184.670 347.100 C 194.608 347.159,210.988 347.159,221.070 347.100 C 231.151 347.040,223.020 346.992,203.000 346.992 C 182.980 346.992,174.731 347.040,184.670 347.100 " stroke="none" fill="#c47c7c" fill-rule="evenodd"></path><path id="path4" d="M185.100 78.700 C 195.055 78.759,211.345 78.759,221.300 78.700 C 231.255 78.640,223.110 78.592,203.200 78.592 C 183.290 78.592,175.145 78.640,185.100 78.700 M167.872 98.117 C 167.980 98.291,170.952 98.409,174.477 98.379 C 181.005 98.324,181.377 98.397,181.715 99.800 L 181.907 100.600 181.947 99.800 C 182.035 98.065,181.656 97.967,174.503 97.882 C 170.748 97.837,167.764 97.943,167.872 98.117 M224.144 98.300 C 223.422 98.979,223.406 101.160,223.604 170.600 L 223.808 242.200 223.899 170.438 C 223.950 130.968,224.038 98.640,224.096 98.597 C 224.153 98.553,224.560 98.317,225.000 98.071 C 225.440 97.825,225.595 97.619,225.344 97.612 C 225.094 97.605,224.554 97.915,224.144 98.300 M227.896 98.065 C 228.283 98.219,230.760 98.329,233.400 98.312 C 238.974 98.275,238.168 98.084,231.696 97.909 C 229.220 97.842,227.510 97.912,227.896 98.065 M181.724 117.000 C 181.726 118.320,181.801 118.812,181.890 118.093 C 181.979 117.374,181.977 116.294,181.886 115.693 C 181.795 115.092,181.722 115.680,181.724 117.000 M165.328 130.400 C 165.328 131.830,165.401 132.415,165.489 131.700 C 165.578 130.985,165.578 129.815,165.489 129.100 C 165.401 128.385,165.328 128.970,165.328 130.400 M98.291 133.889 C 99.001 133.977,100.261 133.979,101.091 133.892 C 101.921 133.805,101.340 133.733,99.800 133.731 C 98.260 133.729,97.581 133.800,98.291 133.889 M109.400 133.963 C 111.374 134.197,111.403 134.221,111.643 135.800 L 111.886 137.400 111.943 135.743 C 112.008 133.842,111.628 133.566,109.067 133.663 L 107.400 133.726 109.400 133.963 M151.280 134.080 C 151.016 134.344,150.813 134.839,150.828 135.180 C 150.848 135.608,150.953 135.553,151.168 135.000 C 151.339 134.560,152.002 134.086,152.640 133.947 C 153.751 133.705,153.757 133.693,152.780 133.647 C 152.219 133.621,151.544 133.816,151.280 134.080 M156.705 133.883 C 157.202 133.979,157.922 133.975,158.305 133.875 C 158.687 133.775,158.280 133.696,157.400 133.701 C 156.520 133.705,156.207 133.787,156.705 133.883 M252.000 133.960 C 253.681 134.184,253.816 134.293,254.047 135.600 C 254.293 136.989,254.295 136.991,254.347 135.780 C 254.418 134.142,253.758 133.588,251.820 133.660 L 250.200 133.720 252.000 133.960 M293.680 134.080 C 293.416 134.344,293.216 135.019,293.236 135.580 C 293.269 136.514,293.303 136.492,293.642 135.323 C 293.971 134.184,294.195 134.029,295.706 133.893 L 297.400 133.740 295.780 133.670 C 294.889 133.631,293.944 133.816,293.680 134.080 M303.305 133.887 C 303.914 133.979,304.814 133.977,305.305 133.882 C 305.797 133.787,305.300 133.711,304.200 133.714 C 303.100 133.717,302.697 133.795,303.305 133.887 M111.772 147.600 C 111.772 152.770,111.829 154.885,111.899 152.300 C 111.968 149.715,111.968 145.485,111.899 142.900 C 111.829 140.315,111.772 142.430,111.772 147.600 M181.724 153.000 C 181.726 154.320,181.801 154.812,181.890 154.093 C 181.979 153.374,181.977 152.294,181.886 151.693 C 181.795 151.092,181.722 151.680,181.724 153.000 M111.786 183.600 C 111.786 195.370,111.837 200.185,111.900 194.300 C 111.962 188.415,111.962 178.785,111.900 172.900 C 111.837 167.015,111.786 171.830,111.786 183.600 M111.788 234.600 C 111.788 248.020,111.838 253.452,111.900 246.671 C 111.961 239.890,111.961 228.910,111.900 222.271 C 111.838 215.632,111.788 221.180,111.788 234.600 M181.731 219.400 C 181.733 220.940,181.805 221.521,181.892 220.691 C 181.979 219.861,181.977 218.601,181.889 217.891 C 181.800 217.181,181.729 217.860,181.731 219.400 M181.667 245.271 C 181.630 246.081,181.317 247.026,180.971 247.371 C 180.626 247.717,180.514 248.000,180.722 248.000 C 181.518 248.000,182.046 246.797,181.893 245.328 L 181.734 243.800 181.667 245.271 M223.752 245.800 C 223.793 247.165,223.933 247.408,224.706 247.453 C 225.414 247.495,225.441 247.468,224.829 247.328 C 224.268 247.201,223.997 246.731,223.875 245.675 L 223.705 244.200 223.752 245.800 M254.000 245.656 C 254.000 246.370,253.698 247.156,253.300 247.478 C 252.668 247.989,252.688 248.002,253.500 247.608 C 254.304 247.218,254.919 244.400,254.200 244.400 C 254.090 244.400,254.000 244.965,254.000 245.656 M150.926 246.369 C 150.967 246.901,151.270 247.410,151.600 247.499 C 151.996 247.606,152.046 247.549,151.746 247.330 C 151.497 247.149,151.193 246.640,151.072 246.200 C 150.899 245.569,150.868 245.605,150.926 246.369 M291.186 267.100 L 289.000 269.400 291.300 267.214 C 293.437 265.182,293.783 264.800,293.486 264.800 C 293.424 264.800,292.389 265.835,291.186 267.100 M121.400 275.200 C 122.259 276.080,123.052 276.800,123.162 276.800 C 123.272 276.800,122.659 276.080,121.800 275.200 C 120.941 274.320,120.148 273.600,120.038 273.600 C 119.928 273.600,120.541 274.320,121.400 275.200 M279.986 278.700 L 277.800 281.000 280.100 278.814 C 282.237 276.782,282.583 276.400,282.286 276.400 C 282.224 276.400,281.189 277.435,279.986 278.700 M159.800 291.195 L 181.400 291.400 181.643 293.000 L 181.886 294.600 181.943 293.180 C 182.043 290.692,183.012 290.791,159.620 290.895 L 138.200 290.990 159.800 291.195 M223.714 291.500 C 223.541 291.885,223.507 293.820,223.638 295.800 L 223.875 299.400 223.911 295.800 C 223.931 293.820,223.959 291.977,223.974 291.703 C 223.994 291.316,228.842 291.183,246.100 291.100 L 268.200 290.993 246.114 290.897 C 225.412 290.806,224.008 290.844,223.714 291.500 M223.597 310.572 C 223.391 321.444,223.471 322.041,225.129 321.972 C 225.662 321.950,225.636 321.880,225.000 321.632 C 224.235 321.334,224.191 320.852,223.997 310.760 L 223.794 300.200 223.597 310.572 M181.654 320.113 C 181.618 320.863,181.306 321.344,180.700 321.588 C 180.091 321.832,180.010 321.957,180.451 321.975 C 181.383 322.011,182.091 320.998,181.885 319.922 C 181.731 319.113,181.702 319.137,181.654 320.113 M234.300 321.882 C 234.795 321.978,235.605 321.978,236.100 321.882 C 236.595 321.787,236.190 321.709,235.200 321.709 C 234.210 321.709,233.805 321.787,234.300 321.882 M166.167 331.200 C 166.167 335.490,166.226 337.245,166.298 335.100 C 166.370 332.955,166.370 329.445,166.298 327.300 C 166.226 325.155,166.167 326.910,166.167 331.200 M239.759 330.800 C 239.759 333.990,239.821 335.295,239.897 333.700 C 239.973 332.105,239.973 329.495,239.897 327.900 C 239.821 326.305,239.759 327.610,239.759 330.800 M166.124 342.600 C 166.126 343.920,166.201 344.412,166.290 343.693 C 166.379 342.974,166.377 341.894,166.286 341.293 C 166.195 340.692,166.122 341.280,166.124 342.600 M184.130 346.700 C 192.671 346.760,206.531 346.760,214.930 346.700 C 223.328 346.640,216.340 346.590,199.400 346.590 C 182.460 346.590,175.588 346.640,184.130 346.700 M233.511 346.693 C 234.451 346.778,235.891 346.777,236.711 346.691 C 237.530 346.605,236.760 346.536,235.000 346.537 C 233.240 346.539,232.570 346.609,233.511 346.693 " stroke="none" fill="#c8847c" fill-rule="evenodd"></path><path id="path5" d="M166.040 77.487 C 165.535 77.871,173.268 77.977,202.580 77.987 C 229.237 77.996,239.638 77.878,239.327 77.567 C 238.667 76.907,166.905 76.829,166.040 77.487 M164.554 78.474 C 164.107 79.198,164.309 96.712,164.774 97.510 C 165.051 97.986,165.179 95.065,165.188 88.100 C 165.200 78.217,165.153 77.505,164.554 78.474 M240.445 81.467 C 240.506 82.322,240.477 83.197,240.379 83.411 C 240.280 83.625,240.301 85.420,240.424 87.400 L 240.649 91.000 240.747 87.200 C 240.802 85.110,240.917 82.730,241.003 81.911 C 241.089 81.092,240.974 80.307,240.746 80.167 C 240.482 80.003,240.373 80.473,240.445 81.467 M240.493 93.200 C 240.493 93.970,240.575 94.285,240.676 93.900 C 240.776 93.515,240.776 92.885,240.676 92.500 C 240.575 92.115,240.493 92.430,240.493 93.200 M166.400 99.342 C 166.400 99.806,167.444 99.867,172.524 99.696 C 176.803 99.552,178.912 99.632,179.524 99.959 L 180.400 100.428 180.400 172.765 C 180.400 233.199,180.311 245.176,179.857 245.553 C 178.827 246.407,154.183 246.354,153.324 245.495 C 152.497 244.669,152.427 137.444,153.252 135.902 C 153.619 135.216,154.113 135.158,158.819 135.250 C 161.658 135.306,164.106 135.227,164.258 135.076 C 164.409 134.924,161.713 134.800,158.267 134.800 L 152.000 134.800 152.000 190.800 C 152.000 235.316,152.103 246.807,152.500 246.833 C 153.744 246.914,180.600 246.733,180.690 246.643 C 180.746 246.587,180.797 213.345,180.805 172.771 L 180.817 99.000 173.609 98.891 C 167.645 98.801,166.400 98.879,166.400 99.342 M224.723 99.100 C 224.439 99.784,224.702 114.631,224.993 114.340 C 225.099 114.234,225.284 111.020,225.403 107.197 C 225.523 103.374,225.721 100.146,225.843 100.023 C 225.965 99.900,228.796 99.758,232.133 99.707 C 235.470 99.656,238.335 99.611,238.500 99.607 C 238.665 99.603,238.800 99.420,238.800 99.200 C 238.800 98.731,224.917 98.632,224.723 99.100 M304.800 112.356 C 304.250 112.524,289.462 112.647,271.939 112.630 C 254.415 112.614,240.161 112.735,240.262 112.900 C 240.610 113.463,308.088 113.264,307.902 112.700 C 307.706 112.102,306.187 111.934,304.800 112.356 M96.662 112.894 C 96.408 113.056,111.845 113.191,130.967 113.194 C 150.088 113.197,165.604 113.071,165.446 112.913 C 165.066 112.533,97.259 112.514,96.662 112.894 M166.439 115.000 C 166.278 115.933,166.417 133.343,166.587 133.517 C 166.936 133.875,166.979 131.701,166.789 123.400 C 166.672 118.340,166.515 114.560,166.439 115.000 M309.200 123.776 C 309.200 130.224,309.339 133.239,309.645 133.428 C 310.279 133.820,310.843 132.734,310.328 132.113 C 310.049 131.777,309.940 128.864,310.013 123.700 C 310.141 114.585,310.133 114.400,309.600 114.400 C 309.345 114.400,309.200 117.792,309.200 123.776 M224.977 126.600 C 224.977 133.200,225.032 135.956,225.099 132.725 C 225.166 129.493,225.166 124.093,225.099 120.725 C 225.032 117.356,224.977 120.000,224.977 126.600 M238.347 116.652 C 238.077 119.502,238.490 133.024,238.821 132.200 C 239.259 131.114,239.276 116.339,238.840 115.652 C 238.601 115.274,238.448 115.586,238.347 116.652 M94.299 115.857 C 93.733 116.820,94.024 132.800,94.607 132.800 C 95.112 132.800,95.199 131.591,95.194 124.700 C 95.188 117.481,94.917 114.804,94.299 115.857 M96.107 135.040 C 96.239 135.172,98.720 135.255,101.620 135.224 C 107.277 135.164,109.414 135.583,109.810 136.831 C 110.160 137.933,110.800 137.380,110.800 135.976 L 110.800 134.800 103.333 134.800 C 99.227 134.800,95.975 134.908,96.107 135.040 M245.306 135.192 C 249.474 135.363,251.779 135.619,252.106 135.947 C 252.949 136.793,252.696 244.676,251.848 245.524 C 251.297 246.074,249.589 246.156,238.765 246.152 L 226.315 246.148 225.582 245.177 C 224.928 244.310,224.821 244.280,224.582 244.903 C 223.777 247.001,224.074 247.037,240.730 246.889 L 253.200 246.778 253.200 190.789 L 253.200 134.800 246.100 134.866 L 239.000 134.932 245.306 135.192 M294.397 135.100 C 294.395 135.265,294.350 164.650,294.297 200.400 L 294.200 265.400 291.280 268.347 C 288.915 270.733,287.232 273.034,289.252 271.119 C 290.931 269.528,293.152 268.399,294.622 268.391 L 296.200 268.382 295.242 267.646 C 294.676 267.210,294.405 266.715,294.580 266.432 C 294.742 266.170,294.873 237.750,294.871 203.277 C 294.866 132.729,294.725 136.108,297.720 135.242 C 298.884 134.906,298.792 134.869,296.700 134.836 C 295.435 134.816,294.399 134.935,294.397 135.100 M301.313 135.046 C 301.705 135.438,308.000 135.534,308.000 135.148 C 308.000 134.957,306.440 134.800,304.533 134.800 C 302.627 134.800,301.177 134.911,301.313 135.046 M110.000 141.200 C 110.000 142.300,110.180 143.200,110.400 143.200 C 110.620 143.200,110.800 142.300,110.800 141.200 C 110.800 140.100,110.620 139.200,110.400 139.200 C 110.180 139.200,110.000 140.100,110.000 141.200 M224.973 153.400 C 224.973 158.680,225.030 160.785,225.099 158.077 C 225.168 155.369,225.168 151.049,225.099 148.477 C 225.029 145.905,224.972 148.120,224.973 153.400 M224.942 171.400 C 224.941 173.380,225.008 174.240,225.092 173.312 C 225.176 172.384,225.177 170.764,225.095 169.712 C 225.012 168.660,224.943 169.420,224.942 171.400 M224.978 204.600 C 224.978 211.420,225.032 214.266,225.099 210.925 C 225.166 207.584,225.166 202.004,225.099 198.525 C 225.033 195.046,224.978 197.780,224.978 204.600 M224.934 225.600 C 224.934 227.250,225.005 227.925,225.091 227.100 C 225.178 226.275,225.178 224.925,225.091 224.100 C 225.005 223.275,224.934 223.950,224.934 225.600 M224.730 237.805 C 224.659 239.718,224.732 241.489,224.894 241.741 C 225.270 242.329,225.307 241.861,225.207 237.800 C 225.102 233.528,224.891 233.531,224.730 237.805 M110.000 258.601 C 110.000 265.374,110.146 265.786,113.755 269.200 C 115.034 270.410,116.377 271.747,116.740 272.171 C 118.928 274.729,121.068 276.915,121.730 277.269 C 123.227 278.071,122.183 276.819,116.600 271.118 L 111.000 265.400 110.872 259.100 C 110.711 251.121,110.000 250.715,110.000 258.601 M278.223 281.700 C 273.196 286.815,268.614 291.314,268.041 291.697 L 267.000 292.395 268.072 292.397 C 268.757 292.399,269.621 291.919,270.472 291.062 C 273.497 288.016,275.903 285.332,276.554 284.279 C 276.935 283.662,277.551 283.040,277.923 282.898 C 278.694 282.603,287.066 274.166,287.647 273.100 C 288.611 271.329,286.728 273.047,278.223 281.700 M122.672 277.862 C 122.515 278.018,123.245 278.998,124.293 280.039 C 125.342 281.080,126.546 282.307,126.970 282.766 C 127.753 283.614,128.400 283.851,128.400 283.289 C 128.400 282.723,122.962 277.571,122.672 277.862 M128.800 284.009 C 128.800 285.108,136.168 292.404,137.242 292.368 C 137.860 292.348,137.988 292.254,137.603 292.103 C 137.275 291.974,135.160 289.963,132.904 287.634 C 130.647 285.306,128.800 283.674,128.800 284.009 M157.400 292.000 L 138.200 292.200 158.733 292.400 C 178.593 292.593,179.284 292.626,179.842 293.390 C 180.513 294.307,180.653 318.543,179.994 319.610 C 179.702 320.084,178.397 320.215,173.374 320.275 C 169.933 320.316,167.016 320.451,166.892 320.575 C 166.768 320.699,169.892 320.800,173.833 320.800 L 181.000 320.800 180.910 306.300 L 180.821 291.800 178.710 291.800 C 177.550 291.800,167.960 291.890,157.400 292.000 M224.861 292.000 C 224.717 292.110,224.587 298.635,224.571 306.500 L 224.541 320.800 231.771 320.794 C 236.497 320.790,238.792 320.656,238.400 320.407 C 238.070 320.198,235.640 320.053,233.000 320.084 C 230.360 320.115,227.615 320.004,226.900 319.838 L 225.600 319.536 225.541 310.268 C 225.451 296.223,225.577 293.509,226.348 292.921 C 226.842 292.545,231.787 292.402,246.800 292.329 C 257.690 292.276,264.890 292.182,262.800 292.120 C 255.348 291.899,225.117 291.804,224.861 292.000 M164.582 322.830 C 164.436 323.066,164.344 327.261,164.377 332.152 C 164.411 337.097,164.254 341.868,164.023 342.899 C 163.567 344.930,163.781 346.000,164.643 346.000 C 165.106 346.000,165.200 344.019,165.200 334.200 C 165.200 327.710,165.121 322.400,165.024 322.400 C 164.927 322.400,164.728 322.593,164.582 322.830 M240.200 323.200 C 239.845 324.318,240.363 325.903,240.838 325.153 C 241.305 324.415,241.297 322.400,240.827 322.400 C 240.622 322.400,240.340 322.760,240.200 323.200 M240.465 337.900 C 240.423 342.810,240.545 345.600,240.800 345.600 C 241.256 345.600,241.266 339.838,240.820 334.000 C 240.565 330.670,240.521 331.152,240.465 337.900 M164.806 347.300 C 164.802 347.770,165.095 347.990,165.700 347.968 C 166.301 347.947,166.401 347.861,166.000 347.708 C 165.670 347.583,165.268 347.282,165.106 347.040 C 164.925 346.769,164.810 346.868,164.806 347.300 M166.800 347.986 C 166.800 348.345,237.071 348.808,238.300 348.457 C 240.775 347.750,234.549 347.600,202.800 347.600 C 179.963 347.600,166.800 347.741,166.800 347.986 " stroke="none" fill="#720d0f" fill-rule="evenodd"></path><path id="path6" d="M183.900 78.300 C 193.195 78.360,208.405 78.360,217.700 78.300 C 226.995 78.240,219.390 78.191,200.800 78.191 C 182.210 78.191,174.605 78.240,183.900 78.300 M236.100 78.287 C 236.705 78.378,237.695 78.378,238.300 78.287 C 238.905 78.195,238.410 78.120,237.200 78.120 C 235.990 78.120,235.495 78.195,236.100 78.287 M240.128 81.200 C 240.128 82.630,240.201 83.215,240.289 82.500 C 240.378 81.785,240.378 80.615,240.289 79.900 C 240.201 79.185,240.128 79.770,240.128 81.200 M165.370 88.600 C 165.371 93.440,165.429 95.365,165.499 92.878 C 165.569 90.391,165.569 86.431,165.498 84.078 C 165.428 81.725,165.370 83.760,165.370 88.600 M240.090 91.100 L 240.000 98.400 232.449 98.400 C 223.970 98.400,223.881 98.429,224.418 101.000 L 224.752 102.600 224.676 100.800 L 224.600 99.000 232.316 98.891 C 238.081 98.810,240.081 98.655,240.226 98.277 C 240.332 97.999,240.366 94.628,240.300 90.786 L 240.180 83.800 240.090 91.100 M165.363 98.090 C 165.440 98.474,167.398 98.649,173.295 98.800 C 177.602 98.910,181.041 98.865,180.939 98.700 C 180.837 98.535,177.358 98.400,173.210 98.400 C 168.457 98.400,165.591 98.248,165.463 97.990 C 165.351 97.764,165.306 97.809,165.363 98.090 M180.899 173.494 L 180.800 246.788 168.700 246.900 L 156.600 247.012 168.713 247.106 C 178.105 247.179,180.868 247.088,181.015 246.700 C 181.120 246.425,181.159 213.350,181.102 173.200 L 180.998 100.200 180.899 173.494 M224.595 173.600 C 224.595 210.670,224.642 225.835,224.700 207.300 C 224.757 188.765,224.757 158.435,224.700 139.900 C 224.642 121.365,224.595 136.530,224.595 173.600 M95.434 113.857 C 95.233 114.379,95.295 114.419,95.735 114.054 C 96.143 113.715,105.309 113.622,130.844 113.698 L 165.400 113.800 165.611 123.800 C 165.726 129.300,165.870 133.620,165.930 133.400 C 166.317 131.972,166.004 114.286,165.582 113.778 C 164.802 112.838,95.795 112.915,95.434 113.857 M239.380 113.708 C 239.273 113.987,239.237 118.622,239.300 124.008 L 239.415 133.800 239.507 123.696 L 239.600 113.591 274.362 113.696 C 293.481 113.753,309.040 113.665,308.938 113.500 C 308.587 112.932,239.599 113.137,239.380 113.708 M95.372 124.600 C 95.372 129.660,95.429 131.675,95.499 129.077 C 95.569 126.480,95.568 122.340,95.498 119.877 C 95.428 117.415,95.371 119.540,95.372 124.600 M96.136 134.494 C 96.391 134.656,99.794 134.791,103.699 134.794 L 110.798 134.800 110.900 199.900 L 111.002 265.000 111.101 199.887 C 111.180 148.086,111.098 134.739,110.700 134.599 C 109.820 134.291,95.654 134.188,96.136 134.494 M158.400 134.385 L 151.800 134.600 151.800 190.767 C 151.800 235.967,151.900 246.954,152.310 247.037 C 152.590 247.094,152.635 247.049,152.410 246.937 C 152.133 246.799,152.000 228.589,152.000 190.767 L 152.000 134.800 158.300 134.794 C 161.765 134.791,164.870 134.613,165.200 134.400 C 165.530 134.187,165.620 134.048,165.400 134.091 C 165.180 134.134,162.030 134.267,158.400 134.385 M240.261 134.500 C 240.363 134.665,243.317 134.800,246.824 134.800 L 253.200 134.800 253.200 190.794 L 253.200 246.788 240.900 246.903 L 228.600 247.018 241.000 247.009 L 253.400 247.000 253.400 190.800 L 253.400 134.600 246.737 134.400 C 243.073 134.290,240.158 134.335,240.261 134.500 M301.810 134.300 C 297.856 134.365,294.490 134.550,294.329 134.710 C 294.169 134.869,297.314 134.947,301.317 134.882 C 305.321 134.817,308.768 134.592,308.978 134.382 C 309.188 134.172,309.279 134.041,309.180 134.090 C 309.081 134.140,305.765 134.234,301.810 134.300 M294.195 200.600 C 294.195 236.020,294.242 250.451,294.300 232.668 C 294.358 214.886,294.358 185.906,294.300 168.268 C 294.242 150.631,294.195 165.180,294.195 200.600 M224.514 243.000 C 224.517 244.100,224.595 244.503,224.687 243.895 C 224.779 243.286,224.777 242.386,224.682 241.895 C 224.587 241.403,224.511 241.900,224.514 243.000 M224.025 245.651 C 223.985 246.696,225.027 247.264,226.672 247.093 L 228.200 246.934 226.487 246.867 C 225.119 246.814,224.701 246.619,224.412 245.900 C 224.168 245.291,224.043 245.210,224.025 245.651 M111.200 265.395 C 111.200 265.550,112.325 266.801,113.700 268.174 C 115.075 269.547,120.233 274.751,125.162 279.739 C 130.092 284.727,134.167 288.762,134.219 288.704 C 134.271 288.647,129.112 283.315,122.756 276.856 C 116.400 270.396,111.200 265.239,111.200 265.395 M283.200 276.086 C 277.370 282.038,272.445 287.172,272.256 287.496 C 272.067 287.821,275.517 284.422,279.922 279.943 C 289.196 270.515,294.015 265.482,293.889 265.355 C 293.840 265.306,289.030 270.135,283.200 276.086 M269.678 289.808 L 267.999 291.593 247.300 291.700 L 226.600 291.807 247.271 291.904 L 267.943 292.000 269.830 290.192 C 270.868 289.197,271.636 288.303,271.537 288.204 C 271.438 288.105,270.602 288.827,269.678 289.808 M136.000 290.670 C 136.000 291.910,137.842 292.016,157.400 291.904 L 177.000 291.792 157.231 291.696 C 139.483 291.610,137.388 291.532,136.731 290.938 C 136.329 290.574,136.000 290.453,136.000 290.670 M178.500 291.476 C 178.885 291.576,179.515 291.576,179.900 291.476 C 180.285 291.375,179.970 291.293,179.200 291.293 C 178.430 291.293,178.115 291.375,178.500 291.476 M224.267 291.867 C 223.883 292.250,223.938 293.914,224.342 294.164 C 224.530 294.281,224.596 293.912,224.487 293.345 C 224.367 292.717,224.507 292.178,224.845 291.964 C 225.150 291.770,225.205 291.609,224.967 291.606 C 224.728 291.603,224.413 291.720,224.267 291.867 M180.980 306.200 C 180.980 313.680,181.034 316.683,181.099 312.874 C 181.165 309.065,181.165 302.945,181.099 299.274 C 181.033 295.603,180.979 298.720,180.980 306.200 M224.565 305.400 C 224.566 309.360,224.626 310.926,224.698 308.880 C 224.771 306.834,224.771 303.594,224.698 301.680 C 224.624 299.766,224.565 301.440,224.565 305.400 M224.093 316.000 C 224.093 316.770,224.175 317.085,224.276 316.700 C 224.376 316.315,224.376 315.685,224.276 315.300 C 224.175 314.915,224.093 315.230,224.093 316.000 M224.134 320.000 L 224.200 321.000 231.982 321.200 L 239.765 321.400 240.043 322.400 C 240.275 323.237,240.327 323.267,240.360 322.580 C 240.440 320.935,239.800 320.800,231.948 320.800 C 224.502 320.800,224.454 320.794,224.262 319.900 C 224.092 319.107,224.077 319.119,224.134 320.000 M165.549 321.500 C 165.065 322.118,165.074 322.142,165.630 321.709 C 166.061 321.373,168.581 321.181,173.630 321.100 L 181.000 320.981 173.549 320.890 C 166.863 320.809,166.042 320.872,165.549 321.500 M165.377 334.200 C 165.377 340.800,165.432 343.556,165.499 340.325 C 165.566 337.093,165.566 331.693,165.499 328.325 C 165.432 324.956,165.377 327.600,165.377 334.200 M240.176 335.800 C 240.176 341.960,240.232 344.424,240.299 341.276 C 240.367 338.127,240.367 333.087,240.299 330.076 C 240.231 327.064,240.176 329.640,240.176 335.800 M184.300 347.500 C 194.475 347.559,211.125 347.559,221.300 347.500 C 231.475 347.440,223.150 347.392,202.800 347.392 C 182.450 347.392,174.125 347.440,184.300 347.500 " stroke="none" fill="#993c44" fill-rule="evenodd"></path><path id="path7" d="M234.800 73.649 C 234.800 74.355,234.900 74.415,235.396 74.004 C 235.998 73.504,235.869 72.800,235.176 72.800 C 234.969 72.800,234.800 73.182,234.800 73.649 M163.400 76.000 C 163.264 76.220,163.276 76.599,163.426 76.843 C 163.695 77.278,164.379 76.611,164.394 75.900 C 164.403 75.462,163.688 75.533,163.400 76.000 M162.400 99.813 C 162.400 100.530,164.037 101.269,164.553 100.785 C 164.747 100.603,164.798 100.172,164.666 99.827 C 164.349 99.001,162.400 98.989,162.400 99.813 M239.200 100.800 L 239.200 102.000 240.000 101.200 C 240.440 100.760,240.800 100.220,240.800 100.000 C 240.800 99.780,240.440 99.600,240.000 99.600 C 239.378 99.600,239.200 99.867,239.200 100.800 M226.982 101.629 C 226.704 102.079,227.501 103.600,228.014 103.600 C 228.226 103.600,228.400 103.435,228.400 103.233 C 228.400 103.031,228.500 102.604,228.623 102.285 C 228.870 101.641,227.350 101.034,226.982 101.629 M233.859 102.210 C 234.050 102.708,234.214 102.729,234.747 102.323 C 235.106 102.050,235.475 101.775,235.567 101.713 C 235.658 101.651,235.259 101.600,234.679 101.600 C 233.899 101.600,233.686 101.758,233.859 102.210 M234.567 104.142 C 234.261 104.938,234.894 106.898,235.525 107.108 C 236.230 107.343,236.124 104.601,235.405 104.004 C 234.923 103.604,234.763 103.631,234.567 104.142 M228.400 105.167 C 228.400 105.809,228.312 106.574,228.204 106.867 C 227.848 107.837,228.643 108.628,229.370 108.025 C 230.133 107.392,230.171 105.659,229.443 104.700 C 228.686 103.702,228.400 103.830,228.400 105.167 M237.867 108.667 C 237.483 109.050,237.538 110.800,237.933 110.800 C 238.580 110.800,238.788 110.267,238.348 109.737 C 238.020 109.342,238.021 109.200,238.351 109.200 C 238.598 109.200,238.800 109.020,238.800 108.800 C 238.800 108.345,238.265 108.268,237.867 108.667 M309.000 108.800 C 309.136 109.020,309.496 109.200,309.800 109.200 C 310.104 109.200,310.464 109.020,310.600 108.800 C 310.741 108.572,310.396 108.400,309.800 108.400 C 309.204 108.400,308.859 108.572,309.000 108.800 M91.384 110.427 C 91.239 110.661,91.216 110.949,91.333 111.067 C 91.620 111.353,92.400 110.848,92.400 110.376 C 92.400 109.865,91.709 109.899,91.384 110.427 M310.646 134.986 C 310.291 135.528,310.000 136.023,310.001 136.086 C 310.003 136.346,312.400 136.344,312.405 136.084 C 312.408 135.928,312.519 135.395,312.652 134.900 C 312.995 133.620,311.499 133.684,310.646 134.986 M167.700 134.730 C 167.307 134.979,167.326 135.214,167.787 135.824 C 168.350 136.567,168.375 136.554,168.387 135.500 C 168.401 134.280,168.404 134.283,167.700 134.730 M235.200 138.381 C 235.200 139.696,236.088 141.200,236.864 141.200 C 238.029 141.200,237.848 139.054,236.614 138.246 C 235.351 137.419,235.200 137.433,235.200 138.381 M160.800 139.390 C 160.800 139.975,164.637 141.230,166.095 141.122 C 168.549 140.940,168.370 140.185,165.747 139.658 C 163.418 139.190,160.800 139.048,160.800 139.390 M154.800 141.376 C 154.800 141.693,154.980 142.064,155.200 142.200 C 155.420 142.336,155.600 142.077,155.600 141.624 C 155.600 141.171,155.420 140.800,155.200 140.800 C 154.980 140.800,154.800 141.059,154.800 141.376 M227.026 243.117 C 226.608 244.436,227.360 245.595,227.936 244.519 C 228.260 243.914,228.235 243.527,227.835 242.980 C 227.326 242.285,227.289 242.291,227.026 243.117 M153.600 243.400 C 153.600 243.791,153.983 243.996,154.700 243.987 C 155.754 243.975,155.767 243.950,155.024 243.387 C 154.034 242.639,153.600 242.643,153.600 243.400 M110.267 269.067 C 109.760 269.574,110.003 270.000,110.800 270.000 C 111.244 270.000,111.600 269.733,111.600 269.400 C 111.600 268.791,110.754 268.579,110.267 269.067 M114.618 273.300 C 115.019 274.627,115.534 275.038,115.830 274.267 C 116.183 273.347,115.755 272.400,114.986 272.400 C 114.509 272.400,114.415 272.629,114.618 273.300 M292.978 274.835 C 292.831 275.074,292.894 275.454,293.120 275.680 C 293.625 276.185,294.400 275.758,294.400 274.976 C 294.400 274.303,293.371 274.200,292.978 274.835 M281.644 280.632 C 280.685 281.632,281.328 283.032,282.575 282.661 C 283.240 282.464,283.288 281.600,282.633 281.600 C 281.904 281.600,281.775 280.942,282.460 280.713 C 282.713 280.629,282.848 280.352,282.760 280.098 C 282.664 279.819,282.219 280.033,281.644 280.632 M122.000 281.336 C 122.000 281.914,123.774 282.893,124.147 282.520 C 124.368 282.299,122.704 280.800,122.237 280.800 C 122.107 280.800,122.000 281.041,122.000 281.336 M126.532 285.200 C 126.673 285.750,126.792 286.425,126.795 286.700 C 126.798 286.975,127.143 287.200,127.563 287.200 C 128.529 287.200,128.277 285.966,127.097 284.926 C 126.290 284.214,126.279 284.219,126.532 285.200 M280.667 287.467 C 280.123 288.011,280.429 288.400,281.400 288.400 C 282.022 288.400,282.400 288.173,282.400 287.800 C 282.400 287.200,281.170 286.963,280.667 287.467 M264.800 294.400 C 264.800 294.620,265.250 294.800,265.800 294.800 C 266.350 294.800,266.800 294.620,266.800 294.400 C 266.800 294.180,266.350 294.000,265.800 294.000 C 265.250 294.000,264.800 294.180,264.800 294.400 M163.300 320.434 C 162.805 320.621,162.400 320.960,162.400 321.187 C 162.400 321.862,163.893 321.656,164.167 320.943 C 164.494 320.089,164.383 320.024,163.300 320.434 M156.667 337.067 C 156.206 337.527,156.375 338.000,157.000 338.000 C 157.330 338.000,157.600 337.730,157.600 337.400 C 157.600 336.775,157.127 336.606,156.667 337.067 " stroke="none" fill="#ac060a" fill-rule="evenodd"></path><path id="path8" d="M165.898 78.900 C 165.795 79.175,165.853 79.760,166.027 80.200 C 166.306 80.906,166.347 80.875,166.372 79.937 C 166.395 79.049,166.547 78.907,167.300 79.072 C 168.023 79.231,168.082 79.185,167.600 78.841 C 166.797 78.267,166.127 78.290,165.898 78.900 M166.046 97.100 C 166.011 97.793,166.207 97.989,166.900 97.954 C 167.538 97.921,167.603 97.855,167.125 97.729 C 166.753 97.631,166.369 97.247,166.271 96.875 C 166.145 96.397,166.079 96.462,166.046 97.100 M239.200 97.200 C 239.200 97.420,238.829 97.600,238.376 97.600 C 237.923 97.600,237.664 97.780,237.800 98.000 C 238.261 98.746,239.600 98.448,239.600 97.600 C 239.600 97.160,239.510 96.800,239.400 96.800 C 239.290 96.800,239.200 96.980,239.200 97.200 M181.766 107.600 C 181.766 111.670,181.825 113.335,181.898 111.300 C 181.971 109.265,181.971 105.935,181.898 103.900 C 181.825 101.865,181.766 103.530,181.766 107.600 M163.200 114.000 C 162.732 114.302,162.843 114.389,163.700 114.394 C 164.476 114.398,164.802 114.606,164.806 115.100 C 164.811 115.686,164.873 115.704,165.183 115.213 C 165.904 114.074,164.456 113.188,163.200 114.000 M306.859 113.949 C 306.474 114.198,306.677 114.350,307.570 114.481 C 308.359 114.597,308.768 114.505,308.678 114.232 C 308.488 113.662,307.536 113.513,306.859 113.949 M95.867 114.267 C 95.224 114.909,95.574 133.504,96.233 133.757 C 97.176 134.119,97.482 134.039,96.800 133.609 C 95.465 132.766,95.766 114.629,97.121 114.272 C 97.646 114.133,97.611 114.082,96.967 114.046 C 96.508 114.021,96.013 114.120,95.867 114.267 M114.700 114.300 C 123.335 114.360,137.465 114.360,146.100 114.300 C 154.735 114.240,147.670 114.190,130.400 114.190 C 113.130 114.190,106.065 114.240,114.700 114.300 M239.867 114.267 C 239.720 114.413,239.603 114.728,239.606 114.967 C 239.610 115.225,239.740 115.200,239.928 114.902 C 240.175 114.514,247.331 114.382,272.622 114.300 L 305.000 114.195 272.567 114.098 C 254.728 114.044,240.013 114.120,239.867 114.267 M181.782 135.000 C 181.782 143.800,181.835 147.343,181.900 142.873 C 181.964 138.404,181.964 131.204,181.899 126.873 C 181.835 122.543,181.782 126.200,181.782 135.000 M239.689 133.000 C 239.803 133.753,240.125 133.801,245.205 133.820 L 250.600 133.839 245.635 133.707 C 241.527 133.597,240.574 133.456,240.119 132.887 C 239.607 132.249,239.577 132.257,239.689 133.000 M308.266 132.971 C 308.146 133.285,307.542 133.618,306.924 133.711 C 305.991 133.851,306.055 133.890,307.300 133.940 C 308.553 133.990,308.800 133.868,308.800 133.200 C 308.800 132.262,308.575 132.166,308.266 132.971 M164.573 133.168 C 164.368 133.363,163.840 133.609,163.400 133.715 C 162.783 133.863,162.847 133.918,163.676 133.954 C 164.268 133.979,164.871 133.808,165.016 133.573 C 165.365 133.009,165.047 132.718,164.573 133.168 M103.491 133.889 C 104.201 133.977,105.461 133.979,106.291 133.892 C 107.121 133.805,106.540 133.733,105.000 133.731 C 103.460 133.729,102.781 133.800,103.491 133.889 M154.100 133.876 C 154.485 133.976,155.115 133.976,155.500 133.876 C 155.885 133.775,155.570 133.693,154.800 133.693 C 154.030 133.693,153.715 133.775,154.100 133.876 M159.300 133.876 C 159.685 133.976,160.315 133.976,160.700 133.876 C 161.085 133.775,160.770 133.693,160.000 133.693 C 159.230 133.693,158.915 133.775,159.300 133.876 M299.300 133.887 C 299.905 133.978,300.895 133.978,301.500 133.887 C 302.105 133.795,301.610 133.720,300.400 133.720 C 299.190 133.720,298.695 133.795,299.300 133.887 M150.994 190.600 C 150.994 220.960,151.042 233.439,151.100 218.331 C 151.158 203.223,151.158 178.383,151.100 163.131 C 151.042 147.879,150.994 160.240,150.994 190.600 M254.194 190.600 C 254.194 220.300,254.242 232.509,254.300 217.731 C 254.358 202.953,254.358 178.653,254.300 163.731 C 254.242 148.809,254.194 160.900,254.194 190.600 M293.395 201.400 C 293.395 236.380,293.442 250.631,293.500 233.068 C 293.558 215.506,293.558 186.886,293.500 169.468 C 293.442 152.051,293.395 166.420,293.395 201.400 M181.790 186.000 C 181.790 203.050,181.840 210.025,181.900 201.500 C 181.960 192.975,181.960 179.025,181.900 170.500 C 181.840 161.975,181.790 168.950,181.790 186.000 M111.734 159.600 C 111.734 161.250,111.805 161.925,111.891 161.100 C 111.978 160.275,111.978 158.925,111.891 158.100 C 111.805 157.275,111.734 157.950,111.734 159.600 M111.734 207.600 C 111.734 209.250,111.805 209.925,111.891 209.100 C 111.978 208.275,111.978 206.925,111.891 206.100 C 111.805 205.275,111.734 205.950,111.734 207.600 M181.776 233.000 C 181.776 239.160,181.832 241.624,181.899 238.476 C 181.967 235.327,181.967 230.287,181.899 227.276 C 181.831 224.264,181.776 226.840,181.776 233.000 M223.693 243.200 C 223.693 243.970,223.775 244.285,223.876 243.900 C 223.976 243.515,223.976 242.885,223.876 242.500 C 223.775 242.115,223.693 242.430,223.693 243.200 M111.734 261.600 C 111.734 263.250,111.805 263.925,111.891 263.100 C 111.978 262.275,111.978 260.925,111.891 260.100 C 111.805 259.275,111.734 259.950,111.734 261.600 M285.612 272.588 C 283.759 274.451,282.323 276.028,282.421 276.092 C 282.519 276.156,284.119 274.631,285.975 272.704 C 287.832 270.777,289.268 269.200,289.167 269.200 C 289.065 269.200,287.466 270.724,285.612 272.588 M136.067 289.700 C 136.893 290.525,137.801 291.195,138.085 291.188 C 138.368 291.181,138.240 290.977,137.800 290.735 C 137.360 290.493,136.452 289.823,135.782 289.247 C 135.104 288.664,135.230 288.865,136.067 289.700 M181.731 297.000 C 181.733 298.540,181.805 299.121,181.892 298.291 C 181.979 297.461,181.977 296.201,181.889 295.491 C 181.800 294.781,181.729 295.460,181.731 297.000 M181.773 309.800 C 181.773 315.080,181.830 317.185,181.899 314.477 C 181.968 311.769,181.968 307.449,181.899 304.877 C 181.829 302.305,181.772 304.520,181.773 309.800 M165.874 321.900 C 165.778 322.065,165.845 322.560,166.022 323.000 C 166.329 323.763,166.345 323.758,166.372 322.909 C 166.400 322.029,166.478 322.018,173.300 321.899 L 180.200 321.780 173.124 321.690 C 169.232 321.640,165.969 321.735,165.874 321.900 M226.300 321.882 C 226.795 321.978,227.605 321.978,228.100 321.882 C 228.595 321.787,228.190 321.709,227.200 321.709 C 226.210 321.709,225.805 321.787,226.300 321.882 M230.905 321.887 C 231.514 321.979,232.414 321.977,232.905 321.882 C 233.397 321.787,232.900 321.711,231.800 321.714 C 230.700 321.717,230.297 321.795,230.905 321.887 M237.799 321.896 C 238.458 321.993,239.130 322.281,239.293 322.536 C 239.484 322.837,239.590 322.754,239.594 322.300 C 239.599 321.746,239.287 321.613,238.100 321.660 C 236.740 321.714,236.712 321.736,237.799 321.896 M165.882 345.371 C 165.436 346.475,166.326 347.128,167.800 346.779 L 169.000 346.495 167.728 346.447 C 166.732 346.410,166.427 346.205,166.324 345.500 C 166.201 344.660,166.172 344.651,165.882 345.371 M239.206 345.671 C 239.203 346.040,238.885 346.407,238.500 346.487 C 237.921 346.607,237.951 346.674,238.674 346.872 C 239.656 347.141,240.129 346.449,239.569 345.564 C 239.277 345.103,239.211 345.123,239.206 345.671 " stroke="none" fill="#d47c74" fill-rule="evenodd"></path></g></svg>